<?xml version="1.0" encoding="UTF-8"?>
<svg id="Layer_1" xmlns="http://www.w3.org/2000/svg" version="1.1" viewBox="0 0 1800 280">
  <!-- Generator: Adobe Illustrator 29.2.1, SVG Export Plug-In . SVG Version: 2.1.0 Build 116)  -->
  <defs>
    <style>
      .st0 {
        fill: #850d09;
      }
    </style>
  </defs>
  <path class="st0" d="M123.9,158.3v109.6h-36.5V12.2h127.8v36.5h-91.3v73h73v36.5h-73Z"/>
  <path class="st0" d="M365.8,12.2v36.5h-91.3v73h73v36.5h-73v73h91.3v36.5h-127.8V12.2h127.8Z"/>
  <path class="st0" d="M385.4,267.8L458.4,12.2h18.3l73,255.6h-36.5c-12.2-36.5-27.4-54.8-45.6-54.8s-33.5,18.3-45.6,54.8h-36.5ZM467.5,103.5l-27.4,91.3c18.3-12.2,36.5-12.2,54.8,0l-27.4-91.3Z"/>
  <path class="st0" d="M642.4,12.2h54.8v36.5h-54.8c-10.1,0-18.7,3.6-25.8,10.7s-10.7,15.7-10.7,25.8,15.2,27.4,45.6,45.6c30.4,18.3,45.6,39.6,45.6,63.9s-7.1,37.4-21.4,51.7-31.5,21.4-51.7,21.4h-54.8v-36.5h54.8c10.1,0,18.7-3.6,25.8-10.7s10.7-15.7,10.7-25.8-15.2-27.4-45.6-45.6c-30.4-18.3-45.6-39.6-45.6-63.9s7.1-37.4,21.4-51.7c14.2-14.2,31.5-21.4,51.7-21.4Z"/>
  <path class="st0" d="M815.9,48.7v219.1h-36.5V48.7h-45.6V12.2h127.8v36.5h-45.6Z"/>
  <path class="st0" d="M891,14l-.9-1.8h40.7l42.4,86.4,42.4-86.4h40.7l-.9,1.8v253.8h-36.5V88.5l-45.6,92.9-45.6-92.9v179.3h-36.5V14Z"/>
  <path class="st0" d="M1219.6,267.8c-35.3,0-65.4-12.5-90.4-37.4-25-25-37.4-55.1-37.4-90.4s12.5-65.4,37.4-90.4c25-25,55.1-37.4,90.4-37.4s65.4,12.5,90.4,37.4c25,25,37.4,55.1,37.4,90.4s-12.5,65.4-37.4,90.4c-25,25-55.1,37.4-90.4,37.4ZM1219.6,48.7c-25.2,0-46.7,8.9-64.5,26.8-17.8,17.8-26.8,39.3-26.8,64.5s8.9,46.7,26.8,64.5c17.8,17.8,39.3,26.8,64.5,26.8s46.7-8.9,64.5-26.8c17.8-17.8,26.8-39.3,26.8-64.5s-8.9-46.7-26.8-64.5c-17.8-17.8-39.3-26.8-64.5-26.8Z"/>
  <path class="st0" d="M1420.5,12.2c35.3,0,65.4,12.5,90.4,37.4,25,25,37.4,55.1,37.4,90.4s-12.5,65.4-37.4,90.4c-25,25-55.1,37.4-90.4,37.4h-36.5V12.2h36.5ZM1420.5,231.3c25.2,0,46.7-8.9,64.5-26.8,17.8-17.8,26.8-39.3,26.8-64.5s-8.9-46.7-26.8-64.5c-17.8-17.8-39.3-26.8-64.5-26.8v182.6Z"/>
  <path class="st0" d="M1712.6,12.2v36.5h-91.3v73h73v36.5h-73v73h91.3v36.5h-127.8V12.2h127.8Z"/>
</svg>